<?xml version="1.0" encoding="utf-8"?>
<!-- Generator: Adobe Illustrator 24.0.1, SVG Export Plug-In . SVG Version: 6.00 Build 0)  -->
<svg version="1.1" id="circle" xmlns="http://www.w3.org/2000/svg" xmlns:xlink="http://www.w3.org/1999/xlink" x="0px" y="0px"
	 viewBox="0 0 612 792" style="enable-background:new 0 0 612 792;" xml:space="preserve">
<style type="text/css">
	.st0{fill:#F15A29;}
	.st1{fill:none;}
</style>
<g id="brush">
	<g>
		<g>
			<path class="st0" d="M261.48,216.41c-0.01,0.01-0.03,0.02-0.04,0.04C261.46,216.44,261.48,216.43,261.48,216.41z"/>
			<path class="st0" d="M269.13,219.11l-0.1,0.02C269.09,219.13,269.12,219.12,269.13,219.11z"/>
			<path class="st0" d="M257.56,213.55c0.01,0,0.01,0,0.02,0c-0.05-0.05-0.13-0.12-0.25-0.24L257.56,213.55z"/>
			<path class="st0" d="M286.17,216.21l-0.1,0.06C286.12,216.24,286.15,216.23,286.17,216.21z"/>
			<path class="st0" d="M276.21,219.28c0.03-0.03,0.08-0.04,0.13-0.05C276.28,219.23,276.22,219.24,276.21,219.28z"/>
			<path class="st0" d="M256.81,210.92l0.01,0.15C256.84,211.05,256.84,210.99,256.81,210.92z"/>
			<path class="st0" d="M254.69,206.95c-0.01,0-0.01,0.01-0.02,0.01C254.69,206.97,254.69,206.97,254.69,206.95z"/>
			<path class="st0" d="M254.87,208.79c0.02,0.03,0.05,0.07,0.08,0.11C254.93,208.85,254.9,208.79,254.87,208.79z"/>
			<path class="st0" d="M254.99,208.96l-0.04-0.05C254.96,208.94,254.98,208.96,254.99,208.96z"/>
			<path class="st0" d="M253.21,204.69c-0.01,0.15,0.04,0.29,0.08,0.43L253.21,204.69z"/>
			<path class="st0" d="M292.25,201.66l0.04,0.02C292.28,201.66,292.26,201.66,292.25,201.66z"/>
			<path class="st0" d="M253.91,204.93l-0.02,0.1C253.9,205,253.91,204.96,253.91,204.93z"/>
			<path class="st0" d="M258.57,212.51c0.15,0.03,0.28,0.28,0.33,0.22C258.79,212.65,258.69,212.47,258.57,212.51z"/>
			<path class="st0" d="M288.05,200.41l-0.06-0.06C288.02,200.38,288.04,200.39,288.05,200.41z"/>
			<path class="st0" d="M253.91,204.93l0.03-0.11c-0.02,0.01-0.03,0.02-0.04,0.03C253.9,204.88,253.91,204.9,253.91,204.93z"/>
			<path class="st0" d="M278.85,191.85L278.85,191.85c0.02,0,0.03,0,0.04,0H278.85z"/>
			<path class="st0" d="M278.01,191.55c0.06,0,0.12,0,0.19,0.01C278.1,191.54,278.05,191.54,278.01,191.55z"/>
			<path class="st0" d="M253.29,205.12l0.05,0.24C253.33,205.27,253.31,205.2,253.29,205.12z"/>
			<path class="st0" d="M268.48,191.54l0.08-0.03C268.53,191.52,268.5,191.53,268.48,191.54z"/>
			<path class="st0" d="M275.54,219.3l-0.08-0.01C275.46,219.31,275.47,219.33,275.54,219.3z"/>
			<path class="st0" d="M281.17,215.89L281.17,215.89L281.17,215.89z"/>
			<path class="st0" d="M280.9,216.08c0.1-0.01,0.22-0.11,0.27-0.19C281.07,215.92,280.99,215.96,280.9,216.08z"/>
			<path class="st0" d="M281.82,215.68c-0.01,0-0.02,0-0.04,0.01C281.79,215.69,281.81,215.68,281.82,215.68z"/>
			<path class="st0" d="M275.57,217.02L275.57,217.02L275.57,217.02z"/>
			<path class="st0" d="M276.82,216.85c0.02,0.01,0.06,0.02,0.09,0.02C276.89,216.85,276.86,216.85,276.82,216.85z"/>
			<path class="st0" d="M284.52,214.1L284.52,214.1L284.52,214.1z"/>
			<path class="st0" d="M289.68,205.17c0.1,0.98,0.07,2.35-0.43,3.29c0.1,0.28-0.1,0.58-0.21,0.9l-0.21-0.08l-0.07,0.28
				c-0.11,0.07,0.06-0.21-0.1-0.08l0.07,0.16c-0.08-0.02-0.47,0.57-0.32,0.09c-0.22,0.29-0.4,0.6-0.64,0.88
				c-0.17,0.18,0.05,0.23-0.18,0.4c-0.09,0,0.03-0.1-0.04-0.14c-0.64,0.5-0.34,0.99-1,1.46l0.03-0.07
				c-0.06,0.13-0.25,0.31-0.24,0.33c0.23,0.11,0.03-0.19,0.29-0.25c0.11,0.16-0.16,0.28-0.05,0.38c-0.19,0.07-0.22,0.21-0.34,0.33
				c-0.3,0.08-0.58,0.39-0.83,0.4c-0.07,0.13-0.11,0.36-0.37,0.53c-0.26-0.01-0.03-0.15-0.31-0.04l0.02,0.12
				c-0.21,0.11-0.2,0.07-0.22,0.02c-0.22,0.13-0.1,0.25-0.42,0.35c0.04-0.06,0.07-0.12,0.1-0.18c-0.18,0.16-0.29,0.18-0.59,0.32
				c-0.02-0.06,0.1-0.12,0.19-0.14c-0.24-0.06-0.24,0.2-0.34,0.23c0.05,0.03,0.26-0.06,0.21,0.09c-0.16,0.06-0.25,0.29-0.42,0.23
				l0.12-0.18c-0.27,0.23-0.11,0.21-0.48,0.35c0.02-0.02-0.01-0.04-0.01-0.06c-0.17,0.23-0.54,0.24-0.89,0.38l0.05-0.05
				c-0.13,0.09-0.17,0.21-0.25,0.24c0.22-0.02,0.18,0.03,0.24,0.12c-0.33-0.07-0.32,0.38-0.81,0.43c-0.01-0.06,0.07-0.17,0.21-0.15
				c0.09-0.23,0.05-0.39,0.27-0.58c-0.15,0.11-0.33,0.21-0.31,0.12l0.01,0.18c-0.1,0.04-0.18,0.06-0.26,0.08
				c-0.01,0.12,0.27,0.1,0.05,0.24c-0.25,0.14-0.2-0.12-0.22-0.03c-0.35,0.19-0.09,0.22-0.47,0.29c0.03-0.03,0.09-0.08,0.13-0.07
				c-0.28,0.02-0.62,0.24-0.75,0.06c0.02-0.06,0.01-0.12,0.11-0.13l0.01,0.03c0.23-0.24-0.22,0.12-0.19-0.09
				c0.05,0.11-0.32,0.17-0.49,0.19l0.08,0.11c-0.45,0.5-0.04-0.25-0.56-0.07c-0.32,0.17,0.14,0-0.05,0.14
				c-0.24,0.04-0.35-0.05-0.67,0.09c-0.11-0.03-0.31-0.06-0.36-0.2c-0.2,0.09-0.64,0.05-0.73,0.2c0.37,0.06,0.32-0.21,0.77-0.1
				l-0.09,0.16c-0.29,0.04-0.64,0.18-0.85,0.16c0.04,0.02,0.07,0.05,0.05,0.09c-0.4,0.13-0.5,0.28-0.92,0.28
				c-0.07-0.12,0.17-0.12,0.34-0.15c-0.27-0.07-0.27,0.02-0.68,0.02c-0.03-0.11,0.27-0.02,0.31-0.13l-0.44,0.08
				c0-0.01,0-0.01,0-0.02c-0.05,0.19-0.34,0.02-0.61,0.1c-0.65,0.06-0.74,0.28-1.09,0.45c-0.1-0.05-0.13-0.09-0.09-0.14
				c0.16,0.08,0.13,0.01,0.19-0.04c-0.22,0.03-0.49-0.17-0.37-0.24c-0.35,0.07,0.13,0.09-0.08,0.16H273
				c0.06,0.09,0.23,0.11-0.02,0.19c-0.21,0.04-0.31,0-0.59-0.01c0.04-0.05-0.08-0.15,0.12-0.13c-0.13-0.04-0.34-0.05-0.42,0.04
				c0.3,0.1-0.5,0.06-0.28,0.22l-0.3-0.1c0.07,0,0.08-0.06,0.18-0.04c-0.08-0.15-0.25,0.03-0.36,0.04c-0.11-0.03-0.38-0.05-0.4-0.11
				c-0.1,0.03-0.33-0.03-0.36-0.1c-0.14,0.01-0.02,0.09-0.06,0.13l-0.48-0.06c-0.02-0.08-0.03-0.31,0.04-0.33
				c-0.19,0.05-0.09,0.23-0.36,0.19c0.17-0.14-0.35-0.16-0.1-0.31c-0.14-0.12-0.58-0.18-0.82-0.19c-0.17,0.09,0.25,0.11,0.22,0.24
				c-0.68-0.08-0.79,0.26-1.28,0.11l0.12,0.06c-0.33,0.01-0.29,0.01-0.5,0.07c0.12-0.13-0.26-0.5-0.77-0.59
				c-0.06,0.06,0.25,0.22,0.14,0.31l-0.35-0.06c-0.02-0.02,0.02-0.03,0.07-0.04c-0.32-0.02-0.51-0.34-0.65-0.18l-0.24-0.32
				l0.09,0.13c-0.06,0.06-0.4-0.03-0.48-0.02c-0.37-0.03-0.47-0.14-0.62-0.29c0.04,0.08,0.14,0.27-0.14,0.2
				c0.08-0.23-0.53-0.28-0.47-0.41c-0.11-0.04-0.26-0.19-0.31-0.1l0.08-0.14c-0.11,0.19-0.48,0.02-0.79-0.06
				c0.19-0.24-0.33-0.11-0.34-0.43c-0.14,0.16-0.53-0.18-0.66-0.06c-0.22-0.1-0.11-0.26-0.14-0.34l-0.14,0.01
				c-0.07-0.13-0.45-0.37-0.64-0.57l-0.3,0.02l-0.04-0.12c-0.06,0.02-0.25-0.07-0.18,0.05l-0.11-0.08c-0.11,0.15-0.2-0.05-0.47-0.14
				c-0.03-0.06,0.01-0.09,0.07-0.08c-0.11-0.08,0-0.13-0.02-0.23c0.05,0.1-0.59-0.01-0.35,0.28c-0.03,0.08-0.23,0-0.32-0.11
				l0.04-0.19l-0.24,0.05c-0.19-0.11-0.19-0.25-0.31-0.37c0.15,0.1,0.52-0.03,0.16-0.29c0.2,0.12,0.35,0.11,0.47,0.16
				c-0.07-0.06-0.09-0.1,0.06-0.07c-0.31-0.16-0.16,0.02-0.44-0.17c0.11-0.11,0.07-0.21-0.1-0.45l0.08,0.23
				c-0.02,0.01-0.04,0.01-0.06,0c0.05,0.07,0.05,0.1,0.03,0.16c-0.05-0.05-0.42-0.12-0.39-0.23c0.09,0.42-0.57-0.27-0.51-0.01
				c-0.06,0.01-0.25-0.15-0.21-0.22c0.3,0.11-0.04-0.27,0.08-0.32c-0.11-0.04,0.08,0.23-0.06,0.18c-0.14-0.1-0.14-0.28-0.17-0.38
				l0.07,0.03l-0.12-0.24c-0.09,0.02,0.07,0.28-0.12,0.13c-0.02-0.07-0.21-0.22-0.16-0.26c0.16,0.01,0.21-0.14,0.36-0.01
				c-0.12-0.12-0.48-0.5-0.45-0.25l-0.13-0.15c0.03,0.13,0.18,0.48-0.11,0.19l0.03-0.02c-0.09-0.05-0.19-0.09-0.27-0.15l-0.01-0.15
				c-0.03,0.03-0.08,0.01-0.14-0.08c0.02-0.05-0.02-0.14,0.04-0.17c-0.18-0.24-0.23-0.18-0.29-0.19c-0.11-0.13-0.12-0.21,0.01-0.19
				c-0.13-0.19-0.34-0.54-0.34-0.72c-0.21-0.24,0,0.07-0.18-0.04c0.06-0.18-0.04-0.42-0.18-0.66c-0.11-0.26-0.26-0.53-0.37-0.76
				c-0.18,0.21-0.07-0.12-0.31-0.14c0.1,0.08,0.02-0.51,0.23-0.11c-0.04-0.08-0.07-0.16-0.1-0.25c0.08-0.21,0.21,0.39,0.3,0.08
				c-0.07-0.28-0.36-0.41-0.36-0.77c0.19,0.08-0.11-0.25,0.09-0.2c0.08,0.06,0.08,0.15,0.11,0.25l0.02-0.06
				c-0.08-0.63-0.26-0.14-0.41-0.46c-0.05-0.4,0.11-0.33,0.19-0.36c0.03-0.06-0.01-0.26-0.06-0.36c0.12,0.23-0.07,0.45-0.19,0.35
				c0.18-0.19-0.03-0.59-0.11-0.7c-0.16,0.59,0.02,0.4-0.16,0.97c0.07,0.07,0.22,0.04,0.2,0.37c-0.13-0.19-0.09,0.03-0.11,0.09
				c0.08-0.08,0.09,0.22,0.15,0.31c-0.06,0.11-0.27-0.15-0.23,0.19l0.24,0.01c-0.01,0.14-0.18-0.02-0.06,0.25
				c-0.15-0.12-0.17,0.09-0.29-0.28c-0.1,0.51,0.25,0.68,0.47,0.98c-0.03-0.03-0.06-0.02-0.09-0.05c0.09,0.05,0.13,0.18,0.18,0.28
				c0.03,0.24-0.16-0.14-0.2-0.06l0.14,0.36c0,0.01-0.01,0.02-0.01,0.02c0.07,0.08,0.12,0.17,0.08,0.22
				c-0.11-0.08-0.2-0.09-0.28-0.14c0.1,0.11,0.19,0.22,0.3,0.32c-0.09-0.01,0.04,0.36-0.15,0.12l0.32,0.53l-0.11,0.12
				c0.1,0.12,0.12,0.11,0.06-0.06c0.06,0.22,0.69,0.67,0.38,0.74c0.39,0.33,0.44,0.51,0.85,0.93c-0.41-0.25,0.2,0.51-0.17,0.19
				c0.14,0.26,0.31,0.19,0.47,0.34c0.09,0.2-0.09,0.24-0.28,0.1l0.23,0.15l-0.03,0.02l0.22,0.11c0.1,0.24-0.08,0.15,0.07,0.35
				l0.14-0.06l0.07,0.18c0-0.09,0.13-0.01,0.27,0.11l-0.02,0.02l0.18,0.13c-0.22-0.09,0.13,0.16-0.01,0.17
				c0.14,0.14,0.14,0.14,0.42,0.35l0.02-0.11c0.39,0.24-0.09,0.13,0.2,0.37l0.05-0.1c0.31,0.46,0.78,0.46,1.01,0.78
				c-0.19-0.11-0.22,0.02-0.2,0c0.28,0.19,0.75,0.48,1.11,0.56c0.02,0.2,0.02,0.26,0.29,0.51c0.23,0.13,0.27,0.13,0.39,0.09
				c0.19,0.17,0.66,0.3,0.62,0.41c0.09-0.06,0.19,0.12,0.35,0.11l0.01,0.06l0.03-0.11c0.29,0.44,0.74,0.18,1.07,0.56h-0.08
				l0.19,0.03c0.01,0.06-0.07,0.05-0.11,0.11l0.81,0.35l-0.13-0.14c0.17,0.06,0.33-0.01,0.51,0.12c-0.39,0.04,0.28,0.1,0.29,0.24
				l-0.19-0.02c0.25,0.07,0.25,0.07,0.26-0.04c0.33,0.07,0.15,0.27,0.48,0.26l-0.21-0.07c-0.04-0.08,0.14-0.12,0.27-0.07
				c0.03,0.03,0.11,0.11,0,0.08c0.26,0.05,0.63,0.2,0.75,0.19c0.13,0.07,0.06,0.13-0.02,0.14c0.57,0.04,0.24,0.08,0.82,0.13
				l-0.02,0.06l0.21-0.03l0.24,0.2l-0.08-0.1c0.18,0.04,0.3,0.01,0.51,0.09l-0.1,0.08c0.53,0.04,0.57,0.26,1.08,0.22
				c0.03,0.02-0.05,0.04-0.09,0.05c0.48-0.07,0.32,0.24,0.81,0.12c-0.03,0.03,0.01,0.07-0.01,0.1l0.22-0.04l-0.03,0.12l0.2-0.16
				l0.11,0.14l0.09-0.05c0.2,0.26,0.54,0.12,0.83,0.33l-0.04-0.16c0.8-0.26,1.78,0.29,2.74,0.13l-0.02,0.13l0.39-0.16
				c0.21,0.09-0.12,0.11-0.06,0.17c0.42-0.08,0.17-0.19,0.65-0.24c0.25,0.08-0.08,0.09-0.2,0.14c0.46-0.07,1.12-0.18,1.45-0.15
				c0.01-0.02,0.02-0.04,0.01-0.05c0.3-0.09,0.7-0.07,1.03-0.12c0,0.06-0.08,0.08-0.16,0.1c0.12-0.01,0.29,0.02,0.39-0.05
				l-0.11,0.12c0.26,0,0.74-0.2,0.81-0.08c-0.04-0.04-0.04-0.14,0.18-0.17c0.16,0.17,0.58-0.18,0.96-0.15
				c-0.03,0.05-0.29,0.11-0.22,0.1c0.19,0.02,0.33-0.1,0.47-0.2l-0.03,0.09l0.79-0.31c0.17,0.16,0.76-0.22,0.74-0.07
				c0.29-0.07-0.27-0.02,0.09-0.13c0.12,0.05,0.31-0.14,0.33-0.02l-0.03,0.03l0.25-0.09l-0.12,0.17c0.21-0.1,0.33-0.27,0.31-0.36
				c0.23,0,0.5-0.15,0.63-0.08l-0.07,0.05c0.56-0.22,1.07-0.05,1.44-0.42c0.04,0,0.05,0.03-0.02,0.06l0.35-0.14l-0.05,0.12
				c0.17-0.13,0.35-0.24,0.52-0.38l0.02,0.06c0.38-0.17,0.95-0.49,1.42-0.76l-0.06,0.06c0.46-0.38,0.52-0.24,0.85-0.53
				c0,0.02-0.01,0.04-0.02,0.05l0.33-0.21l-0.04,0.1c0.17-0.26,0.79-0.31,0.58-0.3c0.1-0.15,0.28-0.38,0.28-0.47
				c0.34-0.26,0.13,0,0.38-0.12c0.25-0.19,0.23-0.29,0.59-0.52l0.03,0.05c0.14-0.14,0.2-0.26,0.4-0.45l-0.04,0.08
				c0.24-0.4,0.54-0.25,0.61-0.68c0.17-0.1,0.38-0.4,0.46-0.3c0.31-0.49,0.6-0.81,0.87-1.32c0.22,0.05,0.06-0.11,0.35-0.32
				l-0.11-0.04c0.24-0.32,0.51-0.66,0.77-1.03c0.27-0.37,0.54-0.75,0.67-1.2l0.11,0.02l-0.05-0.22c0.1-0.23,0.2-0.47,0.3-0.72
				c0.07-0.27,0.14-0.54,0.21-0.8c0.16-0.53,0.21-1.05,0.24-1.46c-0.05-0.27-0.11-0.66-0.12-1.07l0.02,0.04
				c-0.06-0.36-0.11-0.72-0.15-1.09c-0.05-0.37-0.15-0.74-0.2-1.13c0.06,0.04,0.07-0.05,0.12,0.03c-0.16-0.15-0.1-0.45-0.15-0.61
				c0,0.07-0.02,0.14-0.03,0.21c-0.14-0.19-0.18-0.5-0.13-0.64l-0.23-0.29c0-0.03,0.01-0.06,0.02-0.08l-0.08-0.04l0.07-0.23
				c-0.05-0.08-0.27-0.48-0.47-0.54c0.03-0.05-0.09-0.35,0.05-0.14c-0.19-0.37-0.35-0.77-0.57-1.12l0.07,0.19
				c-0.08,0.07-0.35-0.19-0.42-0.37c0.22,0.16,0.14-0.07,0.15-0.2c-0.15-0.11,0,0.18-0.1,0.14c-0.18-0.13-0.47-0.47-0.49-0.59
				l0.11,0.08c-0.19-0.21-0.13-0.43-0.32-0.64c-0.23-0.13-0.3-0.33-0.4-0.16c-0.27-0.24,0-0.19-0.06-0.29
				c-0.18-0.07-0.47-0.49-0.46-0.59c-0.34,0.07-0.65-0.73-0.86-0.61l-0.13-0.3c-0.05,0.04-0.18,0.11-0.38-0.01
				c-0.13-0.19-0.02-0.24-0.04-0.33l-0.26,0.09c-0.85-1.03-2.41-1.71-3.57-2.51c-0.59-0.2-1.35-0.42-2.01-0.69h0.09l-0.66-0.29
				l0.46,0.26c-0.16-0.02-0.29-0.02-0.43-0.07c-0.7-0.36-1.69-0.73-2.66-0.85c-0.66,0.14-0.36-0.31-0.98-0.23
				c0.05-0.02,0.08-0.05,0.13-0.07c-0.65-0.01-1-0.07-1.65,0.04c0.11-0.26-0.41-0.04-0.34-0.17l-0.06,0.1
				c-0.13-0.08-0.46-0.14-0.41-0.21l-0.29,0.1l-0.02-0.11c-0.37-0.07-1.18,0.02-1.37-0.22c-0.94,0.11-2.39,0.1-3.56,0.16
				c-0.16,0.11-0.49,0.15-0.76,0.19l-0.3-0.1c-0.27,0.06-0.53,0.27-0.79,0.24c0-0.02,0.01-0.03,0.02-0.04
				c-0.27,0.07-0.54,0.05-0.77,0.22c-0.3,0.05-0.6,0.03-0.53-0.11c0.01,0.21-0.63,0.11-0.63,0.11s-0.24,0.05-0.66,0.14
				c-0.21,0.05-0.47,0.11-0.77,0.17c-0.29,0.09-0.63,0.19-1,0.3c-1.46,0.45-3.44,1.22-5.31,2.51c-1.88,1.25-3.64,3.03-4.63,4.97
				c-0.22,0.5-0.47,0.95-0.62,1.42c-0.14,0.48-0.27,0.92-0.35,1.34c-0.1,0.86-0.14,1.57,0.01,2.08c0.1,0.14,0.14,0.51,0.28,0.38
				c0.02,0.28-0.18,0.4-0.07,0.46c0.1-0.37,0.27,0.11,0.43-0.24l0.01,0.23c0.07,0.05-0.07-0.31,0.07-0.25l-0.2-0.07
				c0.04-0.19,0.09-0.28,0.17-0.34c-0.07-0.18-0.33-0.32-0.18-0.73c0,0.04,0,0.08,0,0.12c0.04-0.34,0.17-0.19,0.21-0.25l-0.02,0.07
				l0.16-0.26c-0.12,0.2-0.01,0.57,0,0.38c0.14-0.38-0.07,0.09-0.03-0.2c0.03-0.18,0.12-0.11,0.18-0.09l0.06-0.32
				c0.09,0.03-0.05,0.21,0.07,0.1l-0.01-0.42c0.24-0.01-0.01-0.47,0.28-0.58c-0.05,0.29,0.09,0,0.14,0.07l0.24-0.67
				c0.05-0.05,0,0.2,0.03,0.1c0.11-0.1,0.02-0.23,0.05-0.29c0.06-0.04,0.24-0.47,0.37-0.39c0.32-0.37-0.08-0.27,0.21-0.62
				c0.11,0-0.15,0.32,0.03,0.2c0.06-0.14,0.12-0.28,0.19-0.42c0.01,0.06,0.09,0.16-0.01,0.3c0.36-0.5,0.79-0.77,1.14-1.06
				c0.4-0.25,0.74-0.52,1.07-0.95c0.2-0.02-0.03,0.12-0.04,0.26c0.47-0.64,0.95-0.58,1.46-1l-0.05-0.08c0.9-0.34,1.72-1.1,2.72-1.47
				h-0.14c0.09-0.15,0.29-0.26,0.43-0.38c0.04,0.03-0.02,0.24,0.23,0.06c-0.07,0-0.2,0.03-0.19-0.03c0.45-0.12,1.13-0.32,1.85-0.6
				c0.75-0.22,1.55-0.51,2.29-0.61c1.94-0.58,4.16-0.67,6.14-0.73c-0.3,0.02-0.18-0.22,0.05-0.17c0.62,0.41,1.09-0.03,1.72,0.26
				c0.58-0.02,1.12,0.11,1.65,0.19c0.53,0.1,1.04,0.22,1.6,0.16v0.11c0.15,0.08,0.21,0,0.37,0.03l-0.01,0.03
				c0.37,0.14,0.87,0.14,1.07,0.25l0.05-0.12c0.23,0.05,0.09,0.12,0.35,0.11l-0.02,0.06c0.1-0.02,0.2-0.02,0.3-0.03
				c-0.09,0.2,0.63,0.23,0.77,0.38c0.31,0.04,0.88,0.17,1.28,0.39c0.03,0.15,0.57,0.33,0.85,0.56c0.31,0.15,0.69,0.33,1.09,0.52
				c0.38,0.22,0.77,0.47,1.13,0.72l0.07-0.13c0.07,0.04,0.13,0.08,0.19,0.12c-0.02,0.02-0.01,0.06-0.04,0.05
				c0.05,0.24,0.44,0.28,0.53,0.47c-0.01-0.17-0.11-0.11-0.21-0.19c-0.11-0.17,0.11-0.17,0.27,0.04l-0.02,0.02l0.18,0.04
				c-0.05,0.1,0.04,0.23-0.01,0.33c0.3,0.21,0.55,0.39,0.82,0.57c0.26,0.17,0.52,0.36,0.74,0.67c-0.14,0.03,0.38,0.38,0.12,0.41
				c0.36,0.28,0.08-0.17,0.34-0.11c0.08,0.1,0.22,0.16,0.17,0.23c-0.07-0.02-0.05,0.16-0.12,0.09l0.18,0.23c0,0.03-0.06,0-0.09-0.02
				c0.45,0.42,0.5,0.94,0.83,1.35c0.09,0-0.08-0.2,0.01-0.2c0.38,0.41,0.14,0.47,0.39,0.88l-0.13-0.05
				c0.12,0.12,0.23,0.15,0.24,0.43c-0.1,0.08-0.18-0.17-0.27-0.26c0.05,0.17,0.24,0.57,0.31,0.41c0.12,0.19,0.04,0.29,0.02,0.41
				c0.03,0,0.04-0.22,0.12-0.11c-0.02,0.3,0.1,0.73,0.15,1.07c-0.03,0-0.08,0.03-0.09,0C289.9,204.8,289.61,204.81,289.68,205.17z"
				/>
			<path class="st0" d="M275.4,217.02h0.17c0-0.03,0-0.06,0.07-0.1L275.4,217.02z"/>
			<path class="st0" d="M282.89,215.12c0.01-0.02,0.03-0.04,0.04-0.06C282.9,215.08,282.89,215.1,282.89,215.12z"/>
			<path class="st0" d="M284.43,214.05c-0.1,0.09,0.02,0.06,0.09,0.05C284.51,214.08,284.49,214.05,284.43,214.05z"/>
			<path class="st0" d="M270.97,217.42c0.03-0.01,0.05-0.02,0.05-0.05C270.97,217.39,270.96,217.4,270.97,217.42z"/>
			<path class="st0" d="M259.59,213.36c0.01,0.01,0.02,0.03,0.03,0.04C259.61,213.39,259.6,213.38,259.59,213.36z"/>
			<path class="st0" d="M260,213.93c0.03,0.02,0.06,0.04,0.12,0.06C260.08,213.96,260.04,213.94,260,213.93z"/>
			<path class="st0" d="M273.96,217.4c0.05-0.01,0.09-0.02,0.13-0.04C274.02,217.36,273.98,217.38,273.96,217.4z"/>
			<polygon class="st0" points="260.26,214.04 260.4,214.14 260.42,214.12 			"/>
			<path class="st0" d="M259.43,213.22c0.05,0.04,0.12,0.1,0.16,0.14C259.54,213.29,259.49,213.25,259.43,213.22z"/>
			<path class="st0" d="M266.46,216.84h0.02C266.62,216.82,266.54,216.83,266.46,216.84z"/>
			<polygon class="st0" points="261.01,214.25 261.02,214.27 261.08,214.26 			"/>
			<path class="st0" d="M258.9,212.73c0.03,0.02,0.05,0.03,0.08,0.04c-0.02-0.02-0.04-0.04-0.06-0.07
				C258.91,212.72,258.9,212.72,258.9,212.73z"/>
			<path class="st0" d="M264.06,215.88c-0.06,0.03-0.09,0.05-0.1,0.07C264.01,215.97,264.05,215.96,264.06,215.88z"/>
		</g>
	</g>
</g>
<path id="mask" class="st1" d="M272.85,192.74c10.31,0,18.67,5.73,18.67,12.79s-8.36,12.79-18.67,12.79s-18.67-5.73-18.67-12.79
	c0-4.86,2.91-8.54,8.73-10.71C265.55,193.84,269.63,192.74,272.85,192.74z"/>
</svg>
