<?xml version="1.0" encoding="UTF-8"?>
<svg data-name="Layer 1" viewBox="0 0 284.19 162.54" xmlns="http://www.w3.org/2000/svg">
<defs>
<style type="text/css">
    .cls-1{opacity:0.4;}
    .cls-2{fill:#f15a29;}
    .cls-4{fill:none;}
    mask path.cls-4 {
        fill: none;
        stroke: white;
        stroke-width: 4;
        stroke-dasharray: 1000 1000;
        stroke-dashoffset: 1000;
        animation: brush 3s forwards;
        animation-delay: 1s;
    }
    
    @keyframes brush {
        0% { stroke-dashoffset: 1000; }
        20% { stroke-dashoffset: 1000; }
        80% { stroke-dashoffset: 0; }
        100% { stroke-dashoffset: 0; }
    }
</style>
</defs>
<g class="cls-1" mask="url(#mask)">
<path class="cls-2" transform="translate(-163.56 -314.88)" d="M189.83,361.1a136.26,136.26,0,0,1,11.47-9.83A69.09,69.09,0,0,1,214,343.76c2.12-1.08,4.33-2,6.51-3l3.34-1.48c1.12-.51,2.24-1.07,3.41-1.59a103.92,103.92,0,0,1,18.08-6.35c3.09-.86,6.25-1.54,9.41-2.31l9.66-2.11c23.91-5.25,49.8-6.9,74.52-3.05a217.28,217.28,0,0,1,33.57,7.89c5.34,1.79,10.6,3.72,15.69,5.95a147.7,147.7,0,0,1,14.76,7.45c9.42,5.55,18.21,12.19,25.09,20.4a58.92,58.92,0,0,1,8.55,13.31,43.45,43.45,0,0,1,3.92,15,16.93,16.93,0,0,1,.09,2.25c0,.75,0,1.51,0,2.26s-.13,1.52-.19,2.28a17.77,17.77,0,0,1-.27,2.27c-.12.75-.25,1.51-.38,2.26s-.37,1.5-.55,2.25a41,41,0,0,1-1.4,4.46,56.23,56.23,0,0,1-10.06,16.42,86.26,86.26,0,0,1-14.94,13.42,129.47,129.47,0,0,1-17.3,10.41,136.26,136.26,0,0,1-16.37,6.95,194.89,194.89,0,0,1-20.54,6c-14.19,3.42-28.42,5-36.9,6.26,2.85-.29,5.73-.47,8.6-.83l4.32-.48,4.32-.59,2.16-.29,2.16-.34,4.33-.69c2.86-.56,5.75-1,8.59-1.65a196.25,196.25,0,0,0,33-9.75,177.89,177.89,0,0,1-17.33,6.51c-5.94,1.84-12,3.4-18.12,4.74s-12.35,2.3-18.6,3.1-12.54,1.33-18.85,1.56c-25.19,1.08-50.52-1.48-74.05-8.1a220.07,220.07,0,0,0,33.64,6.79,248.71,248.71,0,0,0,34.28,1.86,245.2,245.2,0,0,0,34.07-2.75c5.62-.8,11.18-1.93,16.7-3.16s11-2.76,16.32-4.48a157.68,157.68,0,0,0,30.66-13.41c9.52-5.64,18.44-12.4,25.34-20.91a58,58,0,0,0,8.49-13.93,47.06,47.06,0,0,0,3.72-15.87,47.79,47.79,0,0,0-2-16.28,58.78,58.78,0,0,0-7-14.9,57.87,57.87,0,0,1,8.32,17.63,46.33,46.33,0,0,1,1,20A50.33,50.33,0,0,1,438.31,424a71,71,0,0,1-13.49,15.58c-10.44,9.16-22.91,16-36,21.28a199.05,199.05,0,0,1-41,11.16,253.93,253.93,0,0,1-83.65-.61c-3.37-.57-6.69-1.29-10-2s-6.58-1.54-9.8-2.46a193.53,193.53,0,0,1-18.86-6.2,137.48,137.48,0,0,1-33.38-18.31l-2.23-1.78-1.13-.91-1.09-1-2.19-1.93c-.72-.66-1.4-1.35-2.1-2a82.51,82.51,0,0,1-7.22-8.06c7.58,10.15,17.82,18.17,29.06,24.67A171.86,171.86,0,0,0,242,466.68c26,7.48,54.19,10.29,82.29,8.67,7-.39,14.06-1.12,21-2.16A211.21,211.21,0,0,0,366,469.13a170.83,170.83,0,0,0,39.28-14.77,113.23,113.23,0,0,0,17.39-11.44,80.06,80.06,0,0,0,14.36-14.84,54.56,54.56,0,0,0,9-18.42,48.12,48.12,0,0,0,1-20.28A54.28,54.28,0,0,0,440.88,372a73.07,73.07,0,0,0-11.06-14.76,101.4,101.4,0,0,0-13.9-12,132.68,132.68,0,0,0-15.63-9.51,149.88,149.88,0,0,0-16.68-7.46,172.89,172.89,0,0,0-17.39-5.65,212,212,0,0,0-36.06-6.44c-6.63-.66-13.3-1.14-20-1.22-3.34-.12-6.69,0-10,0s-6.69.19-10,.45c-6.85.41-13.69,1.18-20.5,2.23a201.58,201.58,0,0,0-20.29,4.16,167.4,167.4,0,0,0-38.71,15,119.38,119.38,0,0,0-17.85,11.8,81.08,81.08,0,0,0-16.36,17.38A53.06,53.06,0,0,0,168,385.39a28.13,28.13,0,0,0,.19,13,59.14,59.14,0,0,1,1.51-12.06c.25-1,.57-2,.85-2.95.16-.48.29-1,.46-1.45l.56-1.4c.39-.92.72-1.86,1.16-2.73l1.33-2.55-.78,2.08-.39,1.08-.34,1.14-.7,2.32c-.26.77-.39,1.6-.61,2.4a75.87,75.87,0,0,1,3.63-8.9c-.47,1.13-.93,2.28-1.29,3.26a11.93,11.93,0,0,0-.5,2.34c.39-.85.7-1.85,1.17-2.81s.89-2,1.32-3,1-1.93,1.4-2.81c.22-.44.42-.87.63-1.26l.62-1.05,1.16-2c.5-.92,1.25-1.92,1.94-3,.36-.52.71-1.06,1.08-1.56l1.11-1.39c.7-.86,1.32-1.58,1.73-2l-2.81,3.84c-.88,1.38-1.83,2.74-2.65,4.15s-1.59,2.77-2.19,4.14-1.18,2.59-1.54,3.75c.44-.91,1-1.75,1.51-2.62a20.85,20.85,0,0,1,1.62-2.49c-.62,1.06-1.37,2.69-2.13,4.15a17.62,17.62,0,0,0-1.31,3.51c.56-1.11,1-2.22,1.61-3.26l1.73-3.09,2-3c.68-1,1.49-2,2.28-3,.64-.83,1.34-1.58,2-2.33s1.32-1.5,2-2.2c1.42-1.38,2.72-2.85,4.2-4.22-.42.43-.88.87-1.32,1.33L189,360.2c-.9,1-1.83,2-2.62,3s-1.63,2-2.24,3-1.16,1.82-1.56,2.55c.73-.82,1.44-1.69,2.13-2.58s1.48-1.73,2.2-2.6a1.09,1.09,0,0,0-.2.48l1.14-1.21,1.21-1.2c.09.05.31-.05.23.16a1,1,0,0,0-.09-.18"/>
<path class="cls-2" transform="translate(-163.56 -314.88)" d="M180.26,362.09c.86-1,1.85-2.09,2.86-3.24s2.18-2.21,3.29-3.32A67.82,67.82,0,0,1,193,350"/>
</g>
<mask id="mask"><path class="cls-4" transform="translate(-163.56 -314.88)" d="m169.58 398.36c0-43.34 61.73-78.48 137.88-78.48s137.87 35.12 137.87 78.48-61.73 78.48-137.87 78.48-137.88-35.13-137.88-78.48"/></mask>
</svg>